<svg width="26" height="26" viewBox="0 0 26 26" fill="none" xmlns="http://www.w3.org/2000/svg">
<path d="M25.9201 7.81698C25.8576 6.48711 25.6476 5.5772 25.3402 4.78228C25.0202 3.95987 24.5928 3.26244 23.8953 2.5675C23.2004 1.87257 22.503 1.44512 21.6805 1.12515C20.8831 0.815181 19.9732 0.605202 18.6433 0.545208C17.3085 0.485214 16.8835 0.470215 13.4889 0.470215C10.0942 0.470215 9.66674 0.485214 8.33437 0.545208C7.002 0.605202 6.0946 0.81768 5.29967 1.12515C4.47726 1.44512 3.77983 1.87257 3.0849 2.5675C2.38997 3.26244 1.96251 3.95987 1.64004 4.78228C1.33007 5.5772 1.12009 6.48461 1.0601 7.81698C1.00011 9.14935 0.985107 9.5768 0.985107 12.9715C0.985107 16.3661 1.00011 16.7911 1.0601 18.1234C1.12259 19.4533 1.33257 20.3632 1.64004 21.1581C1.96001 21.9806 2.38747 22.678 3.0824 23.3729C3.77733 24.0679 4.47476 24.4953 5.29718 24.8153C6.0921 25.1252 7.002 25.3352 8.33437 25.3952C9.66924 25.4552 10.0942 25.4702 13.4914 25.4702C16.8885 25.4702 17.3135 25.4552 18.6483 25.3952C19.9807 25.3352 20.8906 25.1227 21.6855 24.8153C22.508 24.4953 23.2054 24.0679 23.9003 23.3729C24.5952 22.678 25.0227 21.9806 25.3452 21.1581C25.6526 20.3632 25.8626 19.4558 25.9251 18.1234C25.9851 16.7911 26.0001 16.3661 26.0001 12.9715C26.0001 9.5768 25.9851 9.15185 25.9251 7.81698H25.9201ZM23.6703 18.016C23.6153 19.2333 23.4104 19.8958 23.2404 20.3357C23.0129 20.9182 22.7429 21.3331 22.3055 21.7706C21.868 22.208 21.4531 22.478 20.8681 22.7055C20.4282 22.878 19.7657 23.0805 18.5458 23.1354C17.2285 23.1954 16.831 23.2079 13.4914 23.2079C10.1517 23.2079 9.75673 23.1954 8.43686 23.1354C7.21698 23.0805 6.55455 22.8755 6.1146 22.7055C5.52965 22.478 5.1147 22.208 4.67724 21.7706C4.23978 21.3331 3.96731 20.9182 3.74233 20.3332C3.57235 19.8933 3.36737 19.2308 3.31237 18.0135C3.25238 16.6961 3.23988 16.3011 3.23988 12.9615C3.23988 9.6218 3.25238 9.22934 3.31237 7.91197C3.36737 6.69209 3.57235 6.03216 3.74233 5.5922C3.96981 5.00976 4.23978 4.5923 4.67724 4.15485C5.1147 3.71739 5.53215 3.44742 6.1146 3.21994C6.55455 3.04746 7.21698 2.84498 8.43686 2.78998C9.59175 2.73749 10.0367 2.72249 12.369 2.71999C12.7014 2.72249 13.0739 2.72249 13.4914 2.72249C16.831 2.72249 17.226 2.73499 18.5458 2.79498C19.7657 2.84998 20.4282 3.05496 20.8681 3.22494C21.4531 3.45242 21.868 3.72239 22.3055 4.15985C22.7429 4.5973 23.0154 5.01476 23.2404 5.5972C23.4104 6.03716 23.6153 6.69959 23.6703 7.91697C23.7303 9.23434 23.7428 9.6293 23.7428 12.9665C23.7428 16.3036 23.7303 16.6986 23.6703 18.016ZM20.1657 4.79728C19.3383 4.79728 18.6658 5.46971 18.6658 6.29713C18.6658 7.12455 19.3383 7.79698 20.1657 7.79698C20.9931 7.79698 21.6655 7.12455 21.6655 6.29713C21.6655 5.46971 20.9931 4.79728 20.1657 4.79728ZM13.4889 6.54961C9.94171 6.54961 7.0645 9.42432 7.0645 12.969C7.0645 16.5136 9.94171 19.3858 13.4889 19.3858C17.036 19.3858 19.9107 16.5136 19.9107 12.969C19.9107 9.42432 17.036 6.54961 13.4889 6.54961ZM13.4889 17.136C11.1866 17.136 9.31927 15.2712 9.31927 12.969C9.31927 10.6667 11.1866 8.80188 13.4889 8.80188C15.7911 8.80188 17.6584 10.6667 17.6584 12.969C17.6584 15.2712 15.7911 17.136 13.4889 17.136Z" fill="white"/>
</svg>
