<svg viewBox="0 0 32 32" fill="none" xmlns="http://www.w3.org/2000/svg">
<g clip-path="url(#clip0_8494_4046)">
<path d="M1.3335 1.33337H6.66683L10.2402 19.1867C10.3621 19.8006 10.696 20.352 11.1836 20.7444C11.6711 21.1369 12.2811 21.3454 12.9068 21.3334H25.8668C26.4926 21.3454 27.1026 21.1369 27.5901 20.7444C28.0776 20.352 28.4116 19.8006 28.5335 19.1867L30.6668 8.00004H8.00016M13.3335 28C13.3335 28.7364 12.7365 29.3334 12.0002 29.3334C11.2638 29.3334 10.6668 28.7364 10.6668 28C10.6668 27.2637 11.2638 26.6667 12.0002 26.6667C12.7365 26.6667 13.3335 27.2637 13.3335 28ZM28.0002 28C28.0002 28.7364 27.4032 29.3334 26.6668 29.3334C25.9305 29.3334 25.3335 28.7364 25.3335 28C25.3335 27.2637 25.9305 26.6667 26.6668 26.6667C27.4032 26.6667 28.0002 27.2637 28.0002 28Z" stroke="#008099" stroke-width="3" stroke-linecap="round" stroke-linejoin="round"/>
</g>
<defs>
<clipPath id="clip0_8494_4046">
<rect width="32" height="32" fill="#008099"/>
</clipPath>
</defs>
</svg>
