<svg width="23" height="25" viewBox="0 0 23 25" fill="none" xmlns="http://www.w3.org/2000/svg">
<path d="M22.8608 23.5594C22.7747 23.7162 22.6481 23.8471 22.4942 23.9383C22.3403 24.0296 22.1648 24.0778 21.9858 24.0781H15.9858C15.8175 24.0781 15.652 24.0355 15.5045 23.9545C15.357 23.8734 15.2323 23.7564 15.1421 23.6144L10.0808 15.6606L2.72584 23.7506C2.54654 23.9432 2.29856 24.0574 2.03565 24.0684C1.77274 24.0794 1.51609 23.9863 1.32135 23.8093C1.12662 23.6323 1.00948 23.3857 0.995346 23.123C0.98121 22.8602 1.07121 22.6025 1.24584 22.4056L8.96709 13.9056L1.14209 1.61563C1.04571 1.46443 0.991766 1.2901 0.985889 1.1109C0.980012 0.931699 1.02242 0.754213 1.10868 0.597027C1.19494 0.439842 1.32188 0.30874 1.4762 0.21745C1.63052 0.126159 1.80654 0.0780379 1.98584 0.0781251H7.98584C8.15414 0.0781772 8.31971 0.120706 8.4672 0.201772C8.61469 0.282838 8.73934 0.399818 8.82959 0.541875L13.8908 8.49562L21.2458 0.405625C21.4251 0.213023 21.6731 0.0988543 21.936 0.0878698C22.1989 0.0768852 22.4556 0.169971 22.6503 0.346945C22.8451 0.523919 22.9622 0.770518 22.9763 1.03328C22.9905 1.29604 22.9005 1.55378 22.7258 1.75063L15.0046 10.2444L22.8296 22.5419C22.9254 22.6931 22.9789 22.8674 22.9844 23.0464C22.9899 23.2253 22.9472 23.4025 22.8608 23.5594Z" fill="white"/>
</svg>
