<svg width="26" height="26" viewBox="0 0 26 26" fill="none" xmlns="http://www.w3.org/2000/svg">
<path fill-rule="evenodd" clip-rule="evenodd" d="M24.1756 0.470215H2.8706C1.8506 0.470215 0.985596 1.27521 0.985596 2.27021V23.6702C0.985596 24.6652 1.5531 25.4702 2.5731 25.4702H23.8781C24.8981 25.4702 25.9856 24.6652 25.9856 23.6702V2.27021C25.9856 1.27771 25.1956 0.470215 24.1756 0.470215ZM10.5106 9.99521H13.8756V11.7102H13.9131C14.4256 10.7852 15.9406 9.84521 17.8156 9.84521C21.4131 9.84521 22.4156 11.7552 22.4156 15.2927V21.9002H18.8431V15.9452C18.8431 14.3627 18.2106 12.9727 16.7331 12.9727C14.9381 12.9727 14.0831 14.1877 14.0831 16.1827V21.9002H10.5106V9.99521ZM4.5581 21.8977H8.1306V9.99271H4.5581V21.8977ZM8.5756 5.82771C8.5756 7.06021 7.5781 8.06021 6.3456 8.06021C5.1131 8.06021 4.1131 7.06272 4.1131 5.83021C4.1131 4.59771 5.1106 3.59771 6.3431 3.59771C7.5756 3.59771 8.5756 4.59521 8.5756 5.82771Z" fill="white"/>
</svg>
